<?xml version="1.0" standalone="no"?>
<!DOCTYPE svg PUBLIC "-//W3C//DTD SVG 20010904//EN"
 "http://www.w3.org/TR/2001/REC-SVG-20010904/DTD/svg10.dtd">
<svg version="1.0" xmlns="http://www.w3.org/2000/svg"
 width="1075.000000pt" height="1075.000000pt" viewBox="0 0 1075.000000 1075.000000"
 preserveAspectRatio="xMidYMid meet">
<metadata>
Created by potrace 1.11, written by Peter Selinger 2001-2013
</metadata>
<g transform="translate(0.000000,1075.000000) scale(0.100000,-0.100000)"
fill="#000000" stroke="none">
<path d="M5167 10594 c-1 -1 -49 -5 -107 -9 -58 -3 -125 -8 -150 -10 -48 -3
-134 -12 -190 -20 -19 -3 -55 -7 -79 -10 -50 -5 -278 -45 -346 -60 -11 -3 -29
-7 -40 -9 -246 -53 -587 -157 -780 -237 -11 -4 -58 -24 -105 -43 -47 -19 -112
-47 -145 -62 -33 -16 -62 -29 -65 -29 -14 -2 -290 -147 -394 -207 -157 -91
-256 -155 -401 -257 -167 -118 -280 -208 -490 -391 -62 -54 -334 -328 -392
-395 -28 -33 -64 -73 -78 -90 -53 -60 -212 -262 -271 -345 -238 -334 -443
-701 -581 -1040 -18 -47 -38 -94 -43 -105 -70 -164 -220 -669 -253 -855 -17
-89 -56 -337 -62 -390 -10 -78 -20 -181 -31 -315 -15 -169 -8 -603 12 -828 7
-83 34 -285 50 -377 8 -47 19 -107 24 -135 42 -250 159 -645 277 -940 54 -136
234 -514 290 -610 10 -17 40 -68 67 -115 58 -100 164 -260 250 -380 64 -90
235 -309 264 -338 9 -10 40 -45 67 -77 54 -64 318 -332 400 -405 609 -548
1286 -926 2060 -1151 77 -23 147 -42 155 -44 8 -2 76 -17 150 -34 203 -45 415
-80 585 -97 28 -3 66 -7 85 -9 198 -24 737 -24 940 0 19 2 63 6 96 9 34 3 78
8 98 11 20 3 52 7 71 10 19 3 59 8 87 11 29 4 56 8 59 10 4 2 24 6 45 10 35 5
256 49 294 59 57 14 188 50 260 71 47 14 92 27 100 29 61 15 381 134 395 146
5 5 15 9 22 9 39 0 568 264 683 340 8 6 22 13 30 17 8 4 20 11 25 15 6 5 51
34 100 66 162 102 412 286 531 391 22 20 69 61 105 91 172 146 464 457 639
680 41 52 78 100 83 105 30 38 154 218 213 310 176 275 343 600 451 880 19 50
38 99 43 110 38 83 141 424 189 625 44 187 92 475 107 638 3 37 8 78 10 92 8
51 18 301 18 470 0 230 -17 505 -39 645 -3 17 -7 53 -10 80 -6 52 -40 252 -60
348 -105 513 -319 1071 -585 1527 -64 110 -204 333 -222 355 -5 5 -34 46 -66
90 -98 139 -221 292 -366 455 -79 88 -303 310 -401 395 -49 43 -92 82 -95 85
-3 3 -39 33 -80 65 -41 33 -77 62 -80 65 -5 6 -139 105 -176 130 -209 145
-294 200 -459 295 -118 68 -382 202 -435 220 -3 1 -32 14 -65 29 -131 61 -444
176 -570 211 -27 8 -84 23 -125 35 -107 30 -349 85 -460 104 -52 9 -106 18
-120 20 -49 9 -286 38 -335 41 -27 2 -93 7 -145 11 -83 6 -527 13 -533 8z
m1413 -2538 c14 -3 43 -8 64 -11 22 -3 76 -15 120 -26 632 -160 1115 -690
1211 -1329 2 -19 8 -53 11 -75 11 -66 12 -3746 1 -3781 -28 -91 -99 -106 -181
-37 -26 22 -156 146 -595 573 -88 85 -532 515 -661 640 -47 45 -188 182 -313
304 -125 121 -231 222 -236 224 -5 2 -5 -16 0 -40 15 -80 8 -346 -13 -463 -67
-385 -254 -714 -554 -974 -35 -31 -183 -134 -245 -170 -104 -62 -294 -134
-444 -169 -125 -29 -159 -33 -325 -36 -249 -6 -460 36 -685 136 -80 36 -235
121 -268 148 -7 5 -46 36 -87 68 -82 64 -205 187 -269 268 -150 193 -276 471
-315 694 -2 14 -7 41 -10 60 -3 19 -8 51 -12 70 -10 62 -26 3701 -16 3768 2
16 16 45 31 63 52 61 105 39 256 -106 102 -98 421 -405 623 -600 75 -71 161
-155 192 -185 31 -30 152 -147 270 -260 117 -113 281 -271 364 -351 296 -286
277 -270 269 -237 -3 12 -7 100 -8 193 -4 218 16 356 80 550 26 79 145 333
168 358 7 7 27 35 46 62 147 214 361 394 621 526 125 63 330 122 495 143 97
12 365 14 415 2z"/>
</g>
</svg>
