<?xml version="1.0" encoding="UTF-8"?>
<svg width="74px" height="57px" viewBox="0 0 74 57" version="1.1" xmlns="http://www.w3.org/2000/svg" xmlns:xlink="http://www.w3.org/1999/xlink">
    <!-- Generator: Sketch 51.1 (57501) - http://www.bohemiancoding.com/sketch -->
    <title>Combined Shape</title>
    <desc>Created with Sketch.</desc>
    <defs></defs>
    <g id="Page-1" stroke="none" stroke-width="1" fill="none" fill-rule="evenodd">
        <g id="Logo" transform="translate(-1112.000000, -360.000000)" fill="#000000">
            <path d="M1140.43041,390.632493 C1141.31493,389.934359 1142.25204,389.233076 1143.24176,388.528645 C1149.62959,384.006429 1156.67167,381.083953 1164.36822,379.761128 C1166.89219,379.330441 1168.97988,379.253534 1170.63137,379.530404 C1172.00241,379.776511 1172.98394,380.268718 1173.57599,381.007039 C1174.10571,381.745359 1174.28488,382.583649 1174.11349,383.521931 C1173.94211,384.460214 1173.49809,385.252359 1172.78141,385.89839 C1171.72196,386.852054 1170.02376,387.467312 1167.68675,387.744183 C1167.15703,387.805709 1166.65848,387.759565 1166.19107,387.605748 C1165.72367,387.451931 1165.48997,387.159684 1165.48997,386.728997 C1165.45881,386.329073 1165.67693,385.990681 1166.14433,385.71381 C1166.58058,385.406177 1167.28167,385.221599 1168.24763,385.160073 C1169.2136,385.098546 1169.91469,384.960113 1170.35093,384.744769 C1170.72485,384.529426 1171.01308,384.214106 1171.21562,383.7988 C1171.41816,383.383495 1171.44153,382.991268 1171.28573,382.622107 C1170.84949,381.63768 1169.4473,381.283906 1167.07913,381.560776 C1166.42477,381.653066 1165.10049,381.929933 1163.10624,382.391383 C1160.98735,382.883597 1158.7828,383.606525 1156.49254,384.56019 C1154.20227,385.513854 1152.16131,386.498267 1150.3696,387.513458 C1148.59841,388.517028 1146.65215,389.700958 1144.53077,391.065284 C1145.1375,391.11948 1145.57446,391.156796 1145.84167,391.177233 C1146.24607,391.208163 1147.11707,391.26229 1148.45471,391.339615 C1149.79234,391.416941 1150.61668,391.471068 1150.92776,391.501998 C1153.94521,391.71851 1158.22246,391.919553 1163.75964,392.105134 C1169.29682,392.290716 1172.84305,392.414435 1174.39844,392.476295 C1175.20724,392.507225 1176.07047,392.569085 1176.98815,392.661875 C1177.90583,392.754666 1178.91681,392.86292 1180.02114,392.986641 C1181.12546,393.110362 1181.98869,393.203151 1182.61084,393.265011 C1183.29521,393.326872 1183.96402,393.636169 1184.61728,394.192913 C1185.20833,394.687796 1185.36387,395.259997 1185.0839,395.909531 C1184.95947,396.187903 1184.77282,396.419876 1184.52396,396.605457 C1184.2751,396.791038 1183.98736,396.92249 1183.66073,396.999815 C1183.33409,397.077141 1183.01524,397.123535 1182.70417,397.139001 C1182.39309,397.154466 1182.02758,397.131268 1181.60762,397.069408 C1181.18767,397.007548 1180.83771,396.945688 1180.55774,396.883828 C1180.27777,396.821967 1179.94337,396.752375 1179.55452,396.67505 C1179.16568,396.597724 1178.90904,396.543597 1178.78461,396.512667 C1177.10479,396.203365 1175.23058,395.955927 1173.16191,395.770346 C1171.09325,395.584764 1169.3979,395.468778 1168.07582,395.422383 C1166.75374,395.375987 1164.87953,395.32186 1162.45312,395.26 C1154.27178,395.105349 1148.81246,394.91977 1146.07497,394.703259 C1144.55069,394.579538 1142.83202,394.370762 1140.91889,394.076925 C1140.78354,394.056137 1140.64807,394.035309 1140.51249,394.014443 C1137.88459,396.242291 1135.64721,398.81282 1133.80029,401.726064 C1133.02129,402.925835 1132.52274,404.233259 1132.30461,405.648374 C1132.08649,407.063489 1132.21113,408.424747 1132.67853,409.73219 C1133.14594,411.039634 1133.94051,412.0625 1135.06227,412.800821 C1136.18404,413.539142 1137.41484,413.954441 1138.75473,414.046731 C1140.09461,414.139021 1141.43448,414.01597 1142.77436,413.677573 C1144.27005,413.369939 1145.78908,412.900805 1147.33151,412.270156 C1148.87393,411.639507 1150.57992,410.862743 1152.44953,409.939842 C1154.31914,409.016941 1155.75248,408.340157 1156.74961,407.90947 C1166.84548,403.664125 1175.42997,401.541484 1182.50331,401.541484 C1182.5968,401.541484 1182.71364,401.533794 1182.85386,401.518412 C1182.99408,401.50303 1183.11093,401.49534 1183.20441,401.49534 L1183.53159,401.49534 C1183.65623,401.49534 1183.76529,401.510721 1183.85877,401.541484 C1184.07689,401.633775 1184.25606,401.779898 1184.39628,401.97986 C1184.5365,402.179822 1184.57545,402.387472 1184.51313,402.602815 C1184.38849,403.002739 1183.93668,403.248842 1183.15767,403.341133 C1174.464,404.32556 1165.36538,407.032696 1155.86155,411.462621 C1155.51879,411.616438 1154.91896,411.900995 1154.06206,412.316301 C1153.20516,412.731606 1152.56638,413.031544 1152.14572,413.216125 C1151.72506,413.400705 1151.11745,413.66988 1150.32286,414.023659 C1149.52828,414.377438 1148.88172,414.646613 1148.38316,414.831193 C1147.88459,415.015774 1147.25361,415.246495 1146.49019,415.523366 C1145.72676,415.800236 1145.05683,416.007886 1144.48037,416.146321 C1143.90391,416.284756 1143.26513,416.43088 1142.56403,416.584697 C1141.86293,416.738513 1141.16963,416.846184 1140.4841,416.90771 C1139.79858,416.969237 1139.11307,417 1138.42755,417 C1135.40502,416.969237 1133.03688,416.092494 1131.32308,414.369745 C1130.07667,413.108447 1129.34442,411.55492 1129.1263,409.709118 C1128.90818,407.863316 1129.05619,406.117521 1129.57033,404.471681 C1130.08447,402.82584 1130.82451,401.23386 1131.79048,399.695692 C1133.06972,397.654192 1134.83679,395.583521 1137.09169,393.483659 C1136.43365,393.380733 1135.77294,393.27692 1135.10955,393.172221 C1133.14976,392.862919 1131.43886,392.630946 1129.97679,392.476295 C1129.23021,392.383504 1128.43697,392.259785 1127.59706,392.105134 C1127.09934,392.012344 1126.69494,392.151527 1126.38387,392.52269 C1126.22833,392.739201 1125.92503,393.110358 1125.47397,393.636172 C1125.02291,394.161986 1124.6885,394.595002 1124.47075,394.935234 C1124.03524,395.522908 1123.37421,396.334814 1122.48764,397.370976 C1121.60107,398.407138 1121.00225,399.141719 1120.69118,399.574742 C1120.62896,399.636603 1120.22457,400.023225 1119.47798,400.734619 C1118.98026,401.198573 1118.397,401.461475 1117.72818,401.523336 C1117.05936,401.585196 1116.42944,401.507872 1115.83839,401.29136 C1115.43399,401.19857 1115.10736,400.966597 1114.8585,400.595434 C1112.55653,397.100321 1112.16769,393.667119 1113.69197,390.295726 C1114.74963,387.94503 1116.38276,386.661446 1118.59141,386.444934 C1121.14225,386.197493 1123.22644,386.274817 1124.84404,386.67691 C1125.62173,386.862491 1126.29054,386.615053 1126.85048,385.934588 C1127.22377,385.501566 1127.79148,384.828844 1128.55362,383.916402 C1129.31576,383.003961 1129.92235,382.277112 1130.37342,381.735834 C1130.82448,381.194555 1131.37663,380.54503 1132.0299,379.78724 C1132.68316,379.02945 1133.31308,378.318066 1133.91968,377.653066 C1134.52628,376.988067 1135.1251,376.346275 1135.71615,375.727671 C1138.98246,372.387208 1141.20663,370.067477 1142.38872,368.768408 C1142.57537,368.582827 1143.44637,367.531216 1145.00176,365.613543 C1143.38416,365.922845 1142.12431,365.567153 1141.22219,364.546456 C1140.91111,364.206224 1140.70891,363.757742 1140.61559,363.200999 C1140.52227,362.644255 1140.56893,362.180309 1140.75558,361.809146 C1140.97333,361.314263 1141.3855,361.035895 1141.9921,360.974035 C1142.5987,360.912174 1143.04198,361.113218 1143.32195,361.577171 C1143.69525,362.226705 1144.18518,362.582397 1144.79179,362.644258 C1145.39839,362.706118 1145.9661,362.628794 1146.49493,362.412282 C1147.92588,362.04112 1149.12351,361.546244 1150.08785,360.92764 C1150.52336,360.649268 1150.8811,360.525549 1151.16107,360.556479 C1151.44104,360.587409 1151.73655,360.788453 1152.04763,361.159615 C1152.7009,361.87101 1152.74756,362.582394 1152.18762,363.293789 C1151.93875,363.603091 1151.54214,364.01291 1150.99775,364.523258 C1150.45337,365.033607 1150.0723,365.397031 1149.85455,365.613543 C1148.48581,367.160053 1145.84169,370.098379 1141.92211,374.428608 C1141.4866,374.923492 1140.67004,375.758595 1139.47239,376.933943 C1138.27474,378.109291 1137.3804,379.052648 1136.78936,379.764043 C1136.26053,380.413577 1135.61505,381.186821 1134.85291,382.083797 C1134.09077,382.980773 1133.35197,383.854538 1132.63649,384.705119 C1131.92102,385.5557 1131.28332,386.336676 1130.72338,387.04807 C1130.31898,387.512024 1130.14789,387.836786 1130.2101,388.022367 C1130.27232,388.207948 1130.58339,388.393527 1131.14333,388.579108 C1131.92102,388.85748 1132.73759,389.11265 1133.59305,389.344627 C1134.44851,389.576604 1135.21842,389.769914 1135.90279,389.924565 C1136.58716,390.079216 1137.44261,390.226133 1138.46917,390.365319 C1139.26213,390.472833 1139.91587,390.56189 1140.43041,390.632493 Z M1117.84483,397.023013 C1119.92905,394.734177 1121.54663,392.816533 1122.69762,391.270023 C1121.48441,390.620488 1120.02237,390.388515 1118.31145,390.574097 C1117.62708,390.666887 1117.0827,391.115369 1116.6783,391.919554 C1116.36722,392.476298 1116.19613,393.079428 1116.16502,393.728962 C1116.13391,394.378496 1116.15724,394.927499 1116.23501,395.375987 C1116.31278,395.824476 1116.46054,396.435338 1116.6783,397.208593 C1116.77162,397.548826 1116.98937,397.62615 1117.33156,397.440569 C1117.54931,397.316848 1117.7204,397.177664 1117.84483,397.023013 Z" id="Combined-Shape"></path>
        </g>
    </g>
</svg>