<?xml version="1.0" encoding="UTF-8"?>
<svg width="90px" height="91px" viewBox="0 0 90 91" version="1.1" xmlns="http://www.w3.org/2000/svg" xmlns:xlink="http://www.w3.org/1999/xlink">
    <!-- Generator: Sketch 52.2 (67145) - http://www.bohemiancoding.com/sketch -->
    <title>layer-cake-icon</title>
    <desc>Created with Sketch.</desc>
    <g id="Page-1" stroke="none" stroke-width="1" fill="none" fill-rule="evenodd">
        <g id="layer-cake-icon" fill="#0432FF" fill-rule="nonzero">
            <path d="M36.968894,45.242932 C36.716692,45.208932 36.443362,45.172157 36.148903,45.132607 C35.21619,45.007331 34.43894,44.875098 33.817131,44.735902 C33.195322,44.596707 32.495797,44.422715 31.718536,44.213922 C30.941274,44.005129 30.199354,43.77546 29.492753,43.524908 C28.984,43.357874 28.701364,43.190842 28.644836,43.023807 C28.588308,42.856773 28.743757,42.564467 29.11119,42.146881 C29.619943,41.506582 30.199347,40.803656 30.84942,40.038081 C31.499494,39.272506 32.170755,38.486064 32.863224,37.678731 C33.555693,36.871397 34.142163,36.175431 34.622652,35.59081 C35.159669,34.950511 35.972248,34.101432 37.060414,33.043547 C38.14858,31.985662 38.8905,31.234018 39.286197,30.788593 C42.847467,26.891121 45.249876,24.246448 46.493494,22.8544943 C46.691342,22.6596207 47.037572,22.3325164 47.532193,21.8731716 C48.026813,21.4138267 48.387175,21.0449644 48.613287,20.7665736 C49.12204,20.1262748 49.079644,19.4859855 48.486099,18.8456867 C48.203459,18.5116177 47.934954,18.3306664 47.680578,18.3028273 C47.426202,18.2749882 47.10117,18.3863429 46.705473,18.6368946 C45.829288,19.1936762 44.741138,19.6390948 43.440992,19.9731638 C42.960503,20.1680374 42.444692,20.237634 41.893543,20.1819559 C41.342394,20.1262777 40.897242,19.8061331 40.558073,19.2215124 C40.303697,18.8039262 39.90094,18.6229749 39.349791,18.678653 C38.798642,18.7343312 38.424149,18.9848791 38.226301,19.4303044 C38.056716,19.7643734 38.014321,20.1819534 38.099113,20.6830568 C38.183905,21.1841603 38.367619,21.5878209 38.650259,21.8940508 C39.469917,22.8127404 40.614594,23.1328851 42.084324,22.8544943 C40.671122,24.580517 39.87974,25.527032 39.710156,25.694066 C38.636122,26.863308 36.615273,28.951207 33.647547,31.957828 C33.11053,32.51461 32.566456,33.092262 32.015307,33.690802 C31.464158,34.289343 30.891819,34.929632 30.298274,35.611689 C29.704729,36.293747 29.20305,36.878359 28.793221,37.365543 C28.383392,37.852727 27.832252,38.506935 27.139782,39.328188 C26.447313,40.149441 25.931502,40.754932 25.592333,41.144679 C25.083581,41.757139 24.475913,41.979848 23.769311,41.812814 C22.299581,41.450905 20.405918,41.381309 18.088266,41.604021 C16.081518,41.798895 14.597678,42.9542 13.6367,45.06997 C12.251762,48.10443 12.605057,51.194521 14.696597,54.340337 C14.922709,54.674406 15.219477,54.883196 15.58691,54.966713 C16.123927,55.161587 16.696265,55.231184 17.303942,55.175506 C17.911619,55.119827 18.441562,54.883199 18.893787,54.465613 C19.572124,53.825314 19.939551,53.47733 19.99608,53.421652 C20.27872,53.031905 20.822795,52.370737 21.62832,51.438128 C22.433846,50.505518 23.034448,49.774753 23.430144,49.245811 C23.627993,48.939581 23.931827,48.54984 24.341656,48.076575 C24.751484,47.603311 25.027055,47.269247 25.168375,47.074373 C25.451015,46.740305 25.818442,46.615031 26.270667,46.698548 C27.033797,46.837743 27.754519,46.949098 28.432856,47.032615 C29.761267,47.17181 31.315766,47.3806 33.096401,47.658991 C33.467604,47.717026 33.837884,47.774759 34.207242,47.832189 C32.668213,49.415914 31.425807,50.981445 30.480016,52.528791 C29.611647,53.946365 28.946374,55.413532 28.484178,56.930335 C28.021982,58.447139 27.888927,60.056061 28.085011,61.757149 C28.281094,63.458237 28.939364,64.889965 30.059839,66.052375 C31.600494,67.640058 33.729366,68.448062 36.44652,68.476414 C37.062782,68.476414 37.679034,68.448063 38.295296,68.39136 C38.911558,68.334657 39.534813,68.235428 40.165081,68.093671 C40.795348,67.951914 41.369584,67.817246 41.887804,67.689665 C42.406024,67.562083 43.00827,67.370713 43.694562,67.11555 C44.380853,66.860387 44.948086,66.647754 45.396276,66.477645 C45.844466,66.307536 46.425705,66.059465 47.140008,65.733423 C47.854311,65.407381 48.400535,65.159309 48.778696,64.9892 C49.156856,64.819092 49.731092,64.542669 50.501419,64.159924 C51.271746,63.777179 51.810967,63.514932 52.119098,63.373175 C60.662726,59.290563 68.842077,56.795671 76.657396,55.888424 C77.357694,55.803369 77.76386,55.576561 77.875908,55.207992 C77.931932,55.009532 77.896917,54.818162 77.770864,54.633878 C77.64481,54.449593 77.483744,54.314926 77.287661,54.229871 C77.203625,54.20152 77.105585,54.187344 76.993537,54.187344 L76.699414,54.187344 C76.615378,54.187344 76.510335,54.194432 76.384282,54.208608 C76.258228,54.222783 76.153185,54.229871 76.069149,54.229871 C69.710449,54.229871 61.993287,56.186093 52.917433,60.098596 C52.021052,60.495517 50.732524,61.11924 49.05181,61.969784 C47.371097,62.820328 45.837468,63.536192 44.450879,64.117397 C43.06429,64.698602 41.698731,65.130956 40.35416,65.41447 C39.149648,65.726337 37.945155,65.839741 36.740643,65.754686 C35.536132,65.669632 34.429679,65.286893 33.42125,64.606458 C32.412822,63.926022 31.698529,62.98335 31.278351,61.778412 C30.858172,60.573475 30.746127,59.318941 30.94221,58.014774 C31.138293,56.710606 31.586477,55.505686 32.286774,54.399979 C33.682907,52.142335 35.327245,50.108021 37.219804,48.29702 C37.605798,48.356113 37.990759,48.414866 38.374686,48.47328 C40.112925,48.737752 41.674491,48.925663 43.059429,49.037019 C45.546665,49.231892 50.506932,49.398924 57.940377,49.53812 C60.144973,49.593798 61.847856,49.642516 63.049078,49.684274 C64.2503,49.726033 65.790668,49.830428 67.670227,49.997462 C69.549787,50.164497 71.25267,50.387206 72.778929,50.665597 C72.891985,50.693436 73.12516,50.742154 73.478461,50.811751 C73.831761,50.881349 74.135595,50.943986 74.389972,50.999664 C74.644348,51.055342 74.962314,51.11102 75.343879,51.166698 C75.725443,51.222376 76.057541,51.243255 76.340181,51.229336 C76.622822,51.215416 76.912524,51.173658 77.209297,51.10406 C77.506069,51.034463 77.767508,50.916148 77.99362,50.749114 C78.219732,50.582079 78.389314,50.373289 78.50237,50.122738 C78.756747,49.538117 78.615429,49.023102 78.078412,48.577676 C77.484867,48.076573 76.877199,47.798186 76.25539,47.742508 C75.690109,47.68683 74.905793,47.603314 73.902419,47.491958 C72.899045,47.380601 71.980478,47.283166 71.146688,47.199649 C70.312899,47.116131 69.528583,47.060454 68.793718,47.032615 C67.380515,46.976937 64.158462,46.865582 59.127461,46.698548 C54.09646,46.531513 50.210212,46.350562 47.468599,46.155688 C47.185958,46.127849 46.436972,46.079132 45.221618,46.009534 C44.006264,45.939936 43.214882,45.891219 42.84745,45.86338 C42.480017,45.83554 41.759295,45.772903 40.685261,45.675467 C40.581191,45.666025 40.479775,45.656715 40.381013,45.647535 C40.863773,45.293369 41.359034,44.950447 41.866795,44.618771 C43.799616,43.342954 45.571342,42.237264 47.182026,41.301665 C48.79271,40.366067 50.627461,39.458833 52.686336,38.579938 C54.74521,37.701042 56.727022,37.034792 58.631831,36.581169 C60.424592,36.155897 61.61508,35.900737 62.20333,35.815683 C64.332234,35.56052 65.592751,35.886557 65.984917,36.793804 C66.124977,37.134021 66.103968,37.495497 65.921891,37.878242 C65.739813,38.260987 65.480707,38.551585 65.144564,38.750045 C64.752398,38.948506 64.12214,39.076085 63.253771,39.132788 C62.385402,39.189491 61.755144,39.359598 61.362977,39.643112 C60.942799,39.898276 60.746719,40.210137 60.77473,40.578706 C60.77473,40.975627 60.984817,41.244962 61.404995,41.386719 C61.825173,41.528476 62.273357,41.571003 62.749559,41.5143 C64.850452,41.259137 66.377077,40.692116 67.329481,39.81322 C67.973755,39.217839 68.372919,38.4878 68.526984,37.62308 C68.681049,36.75836 68.519983,35.985794 68.043781,35.305359 C67.511555,34.624924 66.629194,34.171307 65.39667,33.944495 C63.91204,33.689332 62.035271,33.76021 59.766307,34.15713 C52.847369,35.376243 46.516775,38.069593 40.774336,42.237259 C39.391657,43.246158 38.123177,44.248049 36.968894,45.242932 Z M89.166004,50.597463 C89.166004,51.111488 89.369741,52.529741 88.532034,54.025522 C87.116537,56.554128 84.102071,59.884453 82.118028,63.66634 C80.470704,66.806707 79.613441,70.197289 78.166298,72.905565 C76.592931,75.848626 74.441062,78.014218 72.91854,78.930939 C72.81116,78.995238 71.165257,79.853907 68.771605,80.403939 C66.60018,80.902533 63.813275,81.029661 60.996859,82.278165 C58.116796,83.555328 56.048484,86.56232 53.611098,88.036055 C50.46543,89.938205 47.273538,90.1785 46.873174,90.1785 C42.139916,90.1785 41.329587,87.918112 37.154919,86.830907 C35.215854,86.326067 31.983073,86.800411 29.250925,86.563055 C26.92803,86.36134 25.043545,85.477687 23.808673,84.822571 C22.628559,84.196115 21.13626,84.023793 20.180506,82.813868 C19.092838,81.437501 18.558426,78.983848 17.45938,77.725791 C14.764921,74.640905 11.826546,72.469801 8.777591,70.361527 C5.258226,67.927715 6.878172,63.006081 6.056466,60.586599 C4.94213,57.306244 2.592568,56.349106 1.26205,54.025522 C0.529946,52.746889 0.142026,50.083805 0.355008,48.669593 C1.326763,42.221315 3.853751,42.050463 3.853751,38.225587 C3.853751,35.017614 2.810528,31.731748 2.810528,30.007063 C2.810528,26.9817 8.547186,22.4300611 10.46225,17.8729105 C11.233822,16.0368965 11.723433,13.8981258 12.92417,12.5169818 C14.480826,10.7261608 16.67643,10.2650446 18.884833,9.303498 C20.376065,8.6542611 21.70445,7.6629532 23.201371,7.0280458 C24.60798,6.4313504 25.368885,5.4470235 26.531221,4.4663709 C27.518265,3.6334223 28.581044,2.8934319 29.706401,2.2739563 C31.843337,1.0978345 34.234855,0.3405751 36.669575,0.3405751 C39.893467,0.3405751 42.270763,1.9932449 47.988221,1.9932449 C50.768725,1.9932449 52.55152,0.7381271 53.999729,0.3405751 C55.448294,-0.0573442 56.562629,0.4026697 57.804967,0.4026697 C59.926258,0.4026697 61.791898,1.497591 63.386599,2.8552199 C64.668761,3.9472018 65.664693,5.3448799 66.909876,6.4780132 C67.553801,7.0640533 68.058701,7.4186167 68.890008,7.6111465 C69.662291,7.7897142 70.43173,7.9888576 71.133612,8.3794285 C72.454885,9.1146424 73.663445,10.093458 74.731912,11.1780914 C75.976739,12.4412926 77.418193,13.8646903 78.248078,15.4673905 C79.161164,17.2302873 79.501438,19.2525848 80.178431,21.1146859 C80.826978,22.8985258 81.725131,24.583896 82.910579,26.048078 C84.10136,27.517771 85.48699,28.886055 86.134827,30.727213 C87.221428,33.815773 87.231384,37.032931 87.231384,38.992767 C87.231384,40.802326 87.02409,42.986657 87.02409,43.008703 C87.02409,45.642025 89.166004,47.018393 89.166004,50.597463 Z M17.933958,51.017011 C17.810224,51.163179 17.640092,51.294729 17.423557,51.411663 C17.083289,51.587066 16.866757,51.513982 16.773957,51.192412 C16.557422,50.46157 16.41049,49.884213 16.333156,49.460324 C16.255822,49.036436 16.232622,48.517546 16.263556,47.903638 C16.29449,47.289731 16.464621,46.719682 16.773957,46.193476 C17.176092,45.4334 17.717421,45.009518 18.397959,44.921817 C20.099303,44.746415 21.553156,44.965664 22.759564,45.579572 C21.615023,47.041256 20.006504,48.853718 17.933958,51.017011 Z" id="Combined-Shape"></path>
        </g>
    </g>
</svg>