<?xml version="1.0" encoding="UTF-8"?>
<svg width="90px" height="91px" viewBox="0 0 90 91" version="1.1" xmlns="http://www.w3.org/2000/svg" xmlns:xlink="http://www.w3.org/1999/xlink">
    <!-- Generator: Sketch 51.2 (57519) - http://www.bohemiancoding.com/sketch -->
    <title>Combined Shape</title>
    <desc>Created with Sketch.</desc>
    <defs></defs>
    <g id="Page-1" stroke="none" stroke-width="1" fill="none" fill-rule="evenodd">
        <g id="Logo" transform="translate(-522.000000, -76.000000)" fill="#000000">
            <path d="M558.968894,121.242932 C558.716692,121.208932 558.443362,121.172157 558.148903,121.132607 C557.21619,121.007331 556.43894,120.875098 555.817131,120.735902 C555.195322,120.596707 554.495797,120.422715 553.718536,120.213922 C552.941274,120.005129 552.199354,119.77546 551.492753,119.524908 C550.984,119.357874 550.701364,119.190842 550.644836,119.023807 C550.588308,118.856773 550.743757,118.564467 551.11119,118.146881 C551.619943,117.506582 552.199347,116.803656 552.84942,116.038081 C553.499494,115.272506 554.170755,114.486064 554.863224,113.678731 C555.555693,112.871397 556.142163,112.175431 556.622652,111.59081 C557.159669,110.950511 557.972248,110.101432 559.060414,109.043547 C560.14858,107.985662 560.8905,107.234018 561.286197,106.788593 C564.847467,102.891121 567.249876,100.246448 568.493494,98.8544943 C568.691342,98.6596207 569.037572,98.3325164 569.532193,97.8731716 C570.026813,97.4138267 570.387175,97.0449644 570.613287,96.7665736 C571.12204,96.1262748 571.079644,95.4859855 570.486099,94.8456867 C570.203459,94.5116177 569.934954,94.3306664 569.680578,94.3028273 C569.426202,94.2749882 569.10117,94.3863429 568.705473,94.6368946 C567.829288,95.1936762 566.741138,95.6390948 565.440992,95.9731638 C564.960503,96.1680374 564.444692,96.237634 563.893543,96.1819559 C563.342394,96.1262777 562.897242,95.8061331 562.558073,95.2215124 C562.303697,94.8039262 561.90094,94.6229749 561.349791,94.678653 C560.798642,94.7343312 560.424149,94.9848791 560.226301,95.4303044 C560.056716,95.7643734 560.014321,96.1819534 560.099113,96.6830568 C560.183905,97.1841603 560.367619,97.5878209 560.650259,97.8940508 C561.469917,98.8127404 562.614594,99.1328851 564.084324,98.8544943 C562.671122,100.580517 561.87974,101.527032 561.710156,101.694066 C560.636122,102.863308 558.615273,104.951207 555.647547,107.957828 C555.11053,108.51461 554.566456,109.092262 554.015307,109.690802 C553.464158,110.289343 552.891819,110.929632 552.298274,111.611689 C551.704729,112.293747 551.20305,112.878359 550.793221,113.365543 C550.383392,113.852727 549.832252,114.506935 549.139782,115.328188 C548.447313,116.149441 547.931502,116.754932 547.592333,117.144679 C547.083581,117.757139 546.475913,117.979848 545.769311,117.812814 C544.299581,117.450905 542.405918,117.381309 540.088266,117.604021 C538.081518,117.798895 536.597678,118.9542 535.6367,121.06997 C534.251762,124.10443 534.605057,127.194521 536.696597,130.340337 C536.922709,130.674406 537.219477,130.883196 537.58691,130.966713 C538.123927,131.161587 538.696265,131.231184 539.303942,131.175506 C539.911619,131.119827 540.441562,130.883199 540.893787,130.465613 C541.572124,129.825314 541.939551,129.47733 541.99608,129.421652 C542.27872,129.031905 542.822795,128.370737 543.62832,127.438128 C544.433846,126.505518 545.034448,125.774753 545.430144,125.245811 C545.627993,124.939581 545.931827,124.54984 546.341656,124.076575 C546.751484,123.603311 547.027055,123.269247 547.168375,123.074373 C547.451015,122.740305 547.818442,122.615031 548.270667,122.698548 C549.033797,122.837743 549.754519,122.949098 550.432856,123.032615 C551.761267,123.17181 553.315766,123.3806 555.096401,123.658991 C555.467604,123.717026 555.837884,123.774759 556.207242,123.832189 C554.668213,125.415914 553.425807,126.981445 552.480016,128.528791 C551.611647,129.946365 550.946374,131.413532 550.484178,132.930335 C550.021982,134.447139 549.888927,136.056061 550.085011,137.757149 C550.281094,139.458237 550.939364,140.889965 552.059839,142.052375 C553.600494,143.640058 555.729366,144.448062 558.44652,144.476414 C559.062782,144.476414 559.679034,144.448063 560.295296,144.39136 C560.911558,144.334657 561.534813,144.235428 562.165081,144.093671 C562.795348,143.951914 563.369584,143.817246 563.887804,143.689665 C564.406024,143.562083 565.00827,143.370713 565.694562,143.11555 C566.380853,142.860387 566.948086,142.647754 567.396276,142.477645 C567.844466,142.307536 568.425705,142.059465 569.140008,141.733423 C569.854311,141.407381 570.400535,141.159309 570.778696,140.9892 C571.156856,140.819092 571.731092,140.542669 572.501419,140.159924 C573.271746,139.777179 573.810967,139.514932 574.119098,139.373175 C582.662726,135.290563 590.842077,132.795671 598.657396,131.888424 C599.357694,131.803369 599.76386,131.576561 599.875908,131.207992 C599.931932,131.009532 599.896917,130.818162 599.770864,130.633878 C599.64481,130.449593 599.483744,130.314926 599.287661,130.229871 C599.203625,130.20152 599.105585,130.187344 598.993537,130.187344 L598.699414,130.187344 C598.615378,130.187344 598.510335,130.194432 598.384282,130.208608 C598.258228,130.222783 598.153185,130.229871 598.069149,130.229871 C591.710449,130.229871 583.993287,132.186093 574.917433,136.098596 C574.021052,136.495517 572.732524,137.11924 571.05181,137.969784 C569.371097,138.820328 567.837468,139.536192 566.450879,140.117397 C565.06429,140.698602 563.698731,141.130956 562.35416,141.41447 C561.149648,141.726337 559.945155,141.839741 558.740643,141.754686 C557.536132,141.669632 556.429679,141.286893 555.42125,140.606458 C554.412822,139.926022 553.698529,138.98335 553.278351,137.778412 C552.858172,136.573475 552.746127,135.318941 552.94221,134.014774 C553.138293,132.710606 553.586477,131.505686 554.286774,130.399979 C555.682907,128.142335 557.327245,126.108021 559.219804,124.29702 C559.605798,124.356113 559.990759,124.414866 560.374686,124.47328 C562.112925,124.737752 563.674491,124.925663 565.059429,125.037019 C567.546665,125.231892 572.506932,125.398924 579.940377,125.53812 C582.144973,125.593798 583.847856,125.642516 585.049078,125.684274 C586.2503,125.726033 587.790668,125.830428 589.670227,125.997462 C591.549787,126.164497 593.25267,126.387206 594.778929,126.665597 C594.891985,126.693436 595.12516,126.742154 595.478461,126.811751 C595.831761,126.881349 596.135595,126.943986 596.389972,126.999664 C596.644348,127.055342 596.962314,127.11102 597.343879,127.166698 C597.725443,127.222376 598.057541,127.243255 598.340181,127.229336 C598.622822,127.215416 598.912524,127.173658 599.209297,127.10406 C599.506069,127.034463 599.767508,126.916148 599.99362,126.749114 C600.219732,126.582079 600.389314,126.373289 600.50237,126.122738 C600.756747,125.538117 600.615429,125.023102 600.078412,124.577676 C599.484867,124.076573 598.877199,123.798186 598.25539,123.742508 C597.690109,123.68683 596.905793,123.603314 595.902419,123.491958 C594.899045,123.380601 593.980478,123.283166 593.146688,123.199649 C592.312899,123.116131 591.528583,123.060454 590.793718,123.032615 C589.380515,122.976937 586.158462,122.865582 581.127461,122.698548 C576.09646,122.531513 572.210212,122.350562 569.468599,122.155688 C569.185958,122.127849 568.436972,122.079132 567.221618,122.009534 C566.006264,121.939936 565.214882,121.891219 564.84745,121.86338 C564.480017,121.83554 563.759295,121.772903 562.685261,121.675467 C562.581191,121.666025 562.479775,121.656715 562.381013,121.647535 C562.863773,121.293369 563.359034,120.950447 563.866795,120.618771 C565.799616,119.342954 567.571342,118.237264 569.182026,117.301665 C570.79271,116.366067 572.627461,115.458833 574.686336,114.579938 C576.74521,113.701042 578.727022,113.034792 580.631831,112.581169 C582.424592,112.155897 583.61508,111.900737 584.20333,111.815683 C586.332234,111.56052 587.592751,111.886557 587.984917,112.793804 C588.124977,113.134021 588.103968,113.495497 587.921891,113.878242 C587.739813,114.260987 587.480707,114.551585 587.144564,114.750045 C586.752398,114.948506 586.12214,115.076085 585.253771,115.132788 C584.385402,115.189491 583.755144,115.359598 583.362977,115.643112 C582.942799,115.898276 582.746719,116.210137 582.77473,116.578706 C582.77473,116.975627 582.984817,117.244962 583.404995,117.386719 C583.825173,117.528476 584.273357,117.571003 584.749559,117.5143 C586.850452,117.259137 588.377077,116.692116 589.329481,115.81322 C589.973755,115.217839 590.372919,114.4878 590.526984,113.62308 C590.681049,112.75836 590.519983,111.985794 590.043781,111.305359 C589.511555,110.624924 588.629194,110.171307 587.39667,109.944495 C585.91204,109.689332 584.035271,109.76021 581.766307,110.15713 C574.847369,111.376243 568.516775,114.069593 562.774336,118.237259 C561.391657,119.246158 560.123177,120.248049 558.968894,121.242932 Z M611.166004,126.597463 C611.166004,127.111488 611.369741,128.529741 610.532034,130.025522 C609.116537,132.554128 606.102071,135.884453 604.118028,139.66634 C602.470704,142.806707 601.613441,146.197289 600.166298,148.905565 C598.592931,151.848626 596.441062,154.014218 594.91854,154.930939 C594.81116,154.995238 593.165257,155.853907 590.771605,156.403939 C588.60018,156.902533 585.813275,157.029661 582.996859,158.278165 C580.116796,159.555328 578.048484,162.56232 575.611098,164.036055 C572.46543,165.938205 569.273538,166.1785 568.873174,166.1785 C564.139916,166.1785 563.329587,163.918112 559.154919,162.830907 C557.215854,162.326067 553.983073,162.800411 551.250925,162.563055 C548.92803,162.36134 547.043545,161.477687 545.808673,160.822571 C544.628559,160.196115 543.13626,160.023793 542.180506,158.813868 C541.092838,157.437501 540.558426,154.983848 539.45938,153.725791 C536.764921,150.640905 533.826546,148.469801 530.777591,146.361527 C527.258226,143.927715 528.878172,139.006081 528.056466,136.586599 C526.94213,133.306244 524.592568,132.349106 523.26205,130.025522 C522.529946,128.746889 522.142026,126.083805 522.355008,124.669593 C523.326763,118.221315 525.853751,118.050463 525.853751,114.225587 C525.853751,111.017614 524.810528,107.731748 524.810528,106.007063 C524.810528,102.9817 530.547186,98.4300611 532.46225,93.8729105 C533.233822,92.0368965 533.723433,89.8981258 534.92417,88.5169818 C536.480826,86.7261608 538.67643,86.2650446 540.884833,85.303498 C542.376065,84.6542611 543.70445,83.6629532 545.201371,83.0280458 C546.60798,82.4313504 547.368885,81.4470235 548.531221,80.4663709 C549.518265,79.6334223 550.581044,78.8934319 551.706401,78.2739563 C553.843337,77.0978345 556.234855,76.3405751 558.669575,76.3405751 C561.893467,76.3405751 564.270763,77.9932449 569.988221,77.9932449 C572.768725,77.9932449 574.55152,76.7381271 575.999729,76.3405751 C577.448294,75.9426558 578.562629,76.4026697 579.804967,76.4026697 C581.926258,76.4026697 583.791898,77.497591 585.386599,78.8552199 C586.668761,79.9472018 587.664693,81.3448799 588.909876,82.4780132 C589.553801,83.0640533 590.058701,83.4186167 590.890008,83.6111465 C591.662291,83.7897142 592.43173,83.9888576 593.133612,84.3794285 C594.454885,85.1146424 595.663445,86.093458 596.731912,87.1780914 C597.976739,88.4412926 599.418193,89.8646903 600.248078,91.4673905 C601.161164,93.2302873 601.501438,95.2525848 602.178431,97.1146859 C602.826978,98.8985258 603.725131,100.583896 604.910579,102.048078 C606.10136,103.517771 607.48699,104.886055 608.134827,106.727213 C609.221428,109.815773 609.231384,113.032931 609.231384,114.992767 C609.231384,116.802326 609.02409,118.986657 609.02409,119.008703 C609.02409,121.642025 611.166004,123.018393 611.166004,126.597463 Z M539.933958,127.017011 C539.810224,127.163179 539.640092,127.294729 539.423557,127.411663 C539.083289,127.587066 538.866757,127.513982 538.773957,127.192412 C538.557422,126.46157 538.41049,125.884213 538.333156,125.460324 C538.255822,125.036436 538.232622,124.517546 538.263556,123.903638 C538.29449,123.289731 538.464621,122.719682 538.773957,122.193476 C539.176092,121.4334 539.717421,121.009518 540.397959,120.921817 C542.099303,120.746415 543.553156,120.965664 544.759564,121.579572 C543.615023,123.041256 542.006504,124.853718 539.933958,127.017011 Z" id="Combined-Shape"></path>
        </g>
    </g>
</svg>