<?xml version="1.0" encoding="UTF-8"?>
<svg width="215px" height="215px" viewBox="0 0 215 215" version="1.1" xmlns="http://www.w3.org/2000/svg" xmlns:xlink="http://www.w3.org/1999/xlink">
    <!-- Generator: Sketch 63 (92445) - https://sketch.com -->
    <title>Combined Shape</title>
    <desc>Created with Sketch.</desc>
    <g id="Brand" stroke="none" stroke-width="1" fill="none" fill-rule="evenodd">
        <g id="Artboard" fill="#0432FF">
            <path d="M107.5,0 C166.870611,0 215,48.1293894 215,107.5 C215,109.126246 214.963889,110.744058 214.892425,112.352677 L209.036184,112.350393 C208.754552,112.292701 208.465404,112.249358 208.168052,112.221564 C200.989675,111.549786 193.83119,110.50769 186.639039,110.164915 C166.13682,109.20392 145.567271,108.960613 125.055873,107.584923 C117.197678,107.057578 109.33765,106.642126 101.554604,105.814871 C114.05316,96.1955694 124.93228,89.7238469 136.560177,85.4536907 C136.558131,85.4544428 139.753427,84.2357211 140.971877,83.7992033 C142.938589,83.0946156 144.728847,82.5274419 146.430725,82.0941692 C146.497881,82.0771117 146.497881,82.0771117 146.565037,82.0602139 C152.004401,80.692993 155.658843,80.9537587 156.950976,83.163659 C157.781967,84.5865226 157.021068,86.7762961 155.364299,87.9304681 C154.2854,88.6816625 153.272679,89.0123417 150.97368,89.4784598 L150.65208,89.5429131 L150.584649,89.5562847 C147.559837,90.1562395 146.182876,90.6274987 144.706282,91.8898311 C143.557603,92.8714319 142.882614,94.1923744 143.08159,95.5121424 C143.494321,98.2440534 146.793506,98.9888269 150.174586,98.146145 C156.190301,96.6502245 160.311309,94.6865332 163.176689,91.3440151 C166.754354,87.168792 167.178124,80.70684 163.629035,77.1537535 C161.603461,75.1263327 158.6558,74.196396 154.939382,74.0296064 C149.995491,73.8077109 145.010133,74.6985765 138.475,76.6652087 C120.371634,82.1120484 103.413949,91.5273441 89.0559555,104.040172 C83.6912285,103.047127 78.384413,101.715835 73.1622126,99.8678983 C70.2042497,98.8212117 70.0160289,98.2733844 72.0420729,95.8035697 C77.3168275,89.3719516 82.7048183,83.0336773 87.9948746,76.6158313 C92.1326563,71.5966285 97.1074817,67.3884565 101.451847,62.5758373 C108.414461,54.8649345 115.412269,47.1831054 122.221859,39.3375425 C124.162209,37.1033853 126.628962,35.4461292 128.413227,33.1094469 C129.914397,31.1430821 129.74148,29.3970731 128.032196,27.4980393 C126.397896,25.6831697 125.202775,25.4643435 122.892106,26.953273 C119.961687,28.8431254 116.735932,29.9862168 113.41989,30.8293826 C110.362461,31.6067471 107.378484,32.4040041 105.135145,28.6503139 C103.646218,26.1575457 99.5390411,26.7574023 98.3867665,29.1904913 C97.4058795,31.2624423 97.9919639,34.6396928 99.557404,36.4086553 C102.054763,39.2304266 105.191763,40.1041959 109.559082,39.2702134 C106.881154,42.5786013 104.927032,45.2167425 102.679104,47.6544166 C96.9513996,53.8564994 91.059957,59.8948446 85.191468,65.9622654 C76.9388581,74.4933788 69.5447158,83.7911456 61.9531732,92.9037527 C60.3953831,94.7737108 58.9844974,95.410293 56.6294504,94.8104364 C51.2276875,93.4378079 45.7555325,93.6520415 40.2298187,94.1922189 C33.6405851,94.8364529 29.8379268,98.9788254 27.4109581,104.371407 C23.1308626,113.877287 24.7774076,122.980713 30.3979966,131.540902 C31.0529417,132.538622 31.9221203,133.187445 32.9948215,133.436876 C36.3766626,134.223422 39.7125948,134.748296 42.6016971,131.923464 C43.646854,130.90126 44.8052489,129.996886 45.7065625,128.824718 C48.9108938,124.656331 52.5850105,120.870506 55.64703,116.576639 C57.2032886,114.391448 59.0610061,112.422024 60.70449,110.294982 C61.5706094,109.173313 62.5499649,108.89481 63.9088213,109.171784 C65.9425171,109.58801 68.0022256,109.926195 70.0665267,110.135837 C73.7315059,110.509349 77.3675733,111.009767 80.9890549,111.567213 C71.1168955,121.305591 64.2726086,130.188935 59.7139523,139.97727 C52.6939521,155.051887 53.0107714,171.203266 63.5186474,179.64451 C68.6510327,183.76727 75.8664064,185.344694 83.4458053,184.458999 C95.5367175,183.047669 104.767662,178.597118 122.181214,167.509287 C122.451516,167.337175 124.225157,166.206847 124.740936,165.878646 C125.721279,165.254833 126.52073,164.748131 127.287957,164.264961 C150.064104,149.920706 172.653071,139.756407 195.395253,134.218058 C197.628738,133.675263 199.006531,132.850962 199.256524,131.218894 C199.479691,129.707238 198.310573,128.285518 196.78521,127.846828 L196.614312,127.802176 C195.796733,127.608839 195.185536,127.671946 193.860502,127.956912 C193.739703,127.982888 193.739703,127.982888 193.621052,128.00804 C193.292135,128.077265 193.059446,128.119361 192.836112,128.147075 C172.619554,130.670464 152.366053,138.937219 127.668808,153.218101 C124.598248,154.993739 122.080915,156.593924 116.973027,159.948893 C116.338421,160.365778 115.975351,160.604228 115.642537,160.822571 L115.422494,160.966892 C105.548729,167.441209 100.086212,170.501061 93.347682,172.802596 C84.8127469,175.718176 79.435148,175.990846 73.5597454,173.03751 C64.7147982,168.590885 62.1223131,155.819613 67.0501554,145.361111 C72.5239217,133.741812 81.097709,122.658071 91.1343925,114.22576 C91.4720442,113.942087 91.8082938,113.66053 92.1433528,113.381734 C98.8486648,114.487589 105.566062,115.534077 112.397687,116.067067 C126.654975,117.182616 140.965825,117.256067 155.25678,117.53457 C169.616595,117.814605 183.936626,118.079337 198.091389,120.78634 C200.441772,121.235641 204.481341,122.399024 208.045603,122.421209 C209.822133,122.650633 211.768131,122.861903 213.882114,123.055768 C206.346183,175.054395 161.58799,215 107.5,215 C48.1293894,215 0,166.870611 0,107.5 C0,48.1293894 48.1293894,0 107.5,0 Z M51.0364037,106.926921 C47.0072693,112.337867 42.6981019,117.279026 38.3292515,122.166626 C37.9313879,122.611927 37.4141658,122.985307 36.8862309,123.271462 C36.1073368,123.693809 35.4309679,123.490287 35.1891901,122.587443 C33.9558123,117.958452 32.7851749,113.347826 35.1815383,108.683641 C36.1379422,106.821333 37.3713199,105.399736 39.5044797,105.154897 C43.4142539,104.705006 47.2505786,104.920771 51.0364037,106.926921 Z" id="Combined-Shape"></path>
        </g>
    </g>
</svg>