<?xml version="1.0" encoding="UTF-8"?>
<svg width="190px" height="190px" viewBox="0 0 190 190" version="1.1" xmlns="http://www.w3.org/2000/svg" xmlns:xlink="http://www.w3.org/1999/xlink">
    <title>loom</title>
    <g id="Page-1" stroke="none" stroke-width="1" fill="none" fill-rule="evenodd">
        <g id="loom" fill="#222222" fill-rule="nonzero">
            <path d="M189.611,84.2622 L134.166,84.2622 L182.184,56.539 L171.639,38.2692 L123.621,65.9923 L151.338,17.9781 L133.068,7.42678 L105.351,55.4409 L105.351,0 L84.2598,0 L84.2598,55.4462 L56.5322,7.42678 L38.2681,17.9728 L65.9904,65.987 L17.9723,38.2692 L7.42658,56.5337 L55.4447,84.2569 L0,84.2569 L0,105.349 L55.4394,105.349 L7.42658,133.072 L17.9723,151.342 L65.9851,123.624 L38.2628,171.638 L56.5322,182.184 L84.2545,134.165 L84.2545,189.611 L105.346,189.611 L105.346,134.17 L133.063,182.184 L151.332,171.638 L123.61,123.619 L171.628,151.342 L182.174,133.072 L134.161,105.354 L189.6,105.354 L189.6,84.2622 L189.611,84.2622 Z M94.8055,123.491 C78.9021,123.491 66.0116,110.601 66.0116,94.6968 C66.0116,78.7929 78.9021,65.9021 94.8055,65.9021 C110.709,65.9021 123.599,78.7929 123.599,94.6968 C123.599,110.601 110.709,123.491 94.8055,123.491 Z" id="Shape"></path>
        </g>
    </g>
</svg>