<?xml version="1.0" encoding="UTF-8"?>
<svg width="3599px" height="3598px" viewBox="0 0 3599 3598" version="1.1" xmlns="http://www.w3.org/2000/svg" xmlns:xlink="http://www.w3.org/1999/xlink">
    <!-- Generator: Sketch 51.1 (57501) - http://www.bohemiancoding.com/sketch -->
    <title>noah-logo</title>
    <desc>Created with Sketch.</desc>
    <defs></defs>
    <g id="Page-1" stroke="none" stroke-width="1" fill="none" fill-rule="evenodd">
        <g id="noah-logo" fill="#000000" fill-rule="nonzero">
            <path d="M2702.95253,2648.81637 C2702.9442,2705.62058 2669.58167,2719.73726 2628.80248,2680.19973 L2013.31032,2083.47425 C2050.95201,2329.92861 1919.76857,2579.88715 1680.30588,2682.1414 C1396.35566,2803.39566 1067.67623,2671.05805 946.192796,2386.56199 C920.488609,2326.37028 906.163597,2264.19106 902.171927,2202.42018 C901.134426,2196.82017 900.551093,2190.87434 900.534426,2184.53266 L896.663589,950.673343 C896.492756,893.877465 929.813616,879.648287 970.721982,919.052485 L1590.48914,1516.1363 C1551.76828,1268.39026 1683.83089,1016.87756 1924.80191,914.873315 C2209.13131,794.527385 2537.39407,927.902492 2657.9775,1212.78605 C2683.49002,1273.05277 2697.61503,1335.27365 2701.41503,1397.0612 C2702.43587,1402.6612 2702.99837,1408.61538 2702.99837,1414.95705 L2702.95253,2648.81637 Z M1799.83098,0.00591615 C806.355184,0.00591615 0.98370626,805.377394 0.98370626,1798.85736 C0.98370626,2792.32482 806.355184,3597.70046 1799.83098,3597.70046 C2793.31094,3597.70046 3598.67825,2792.32482 3598.67825,1798.85736 C3598.67825,805.377394 2793.31094,0.00591615 1799.83098,0.00591615 Z" id="Shape"></path>
        </g>
    </g>
</svg>