<?xml version="1.0" encoding="UTF-8" standalone="no"?>
<!DOCTYPE svg PUBLIC "-//W3C//DTD SVG 1.1//EN" "http://www.w3.org/Graphics/SVG/1.1/DTD/svg11.dtd">
<svg width="100%" height="100%" viewBox="0 0 3598 3598" version="1.1" xmlns="http://www.w3.org/2000/svg" xmlns:xlink="http://www.w3.org/1999/xlink" xml:space="preserve" xmlns:serif="http://www.serif.com/" style="fill-rule:evenodd;clip-rule:evenodd;stroke-linejoin:round;stroke-miterlimit:1.41421;">
    <g transform="matrix(1,0,0,1,-2549.51,-2186.85)">
        <g transform="matrix(4.16667,0,0,4.16667,0,0)">
            <g transform="matrix(1,0,0,1,1260.35,752.577)">
                <path d="M0,407.982C-0.002,421.615 -8.009,425.003 -17.796,415.514L-165.514,272.3C-156.48,331.449 -187.964,391.439 -245.435,415.98C-313.583,445.081 -392.466,413.32 -421.622,345.041C-427.791,330.595 -431.229,315.672 -432.187,300.847C-432.436,299.503 -432.576,298.076 -432.58,296.554L-433.509,0.428C-433.55,-13.203 -425.553,-16.618 -415.735,-7.161L-266.991,136.139C-276.284,76.68 -244.589,16.317 -186.756,-8.164C-118.517,-37.047 -39.734,-5.037 -10.794,63.335C-4.671,77.799 -1.281,92.732 -0.369,107.561C-0.124,108.905 0.011,110.334 0.011,111.856L0,407.982ZM-216.749,-227.732C-455.183,-227.732 -648.472,-34.443 -648.472,203.992C-648.472,442.424 -455.183,635.714 -216.749,635.714C21.686,635.714 214.974,442.424 214.974,203.992C214.974,-34.443 21.686,-227.732 -216.749,-227.732" style="fill:white;fill-rule:nonzero;"/>
            </g>
        </g>
    </g>
</svg>
