<?xml version="1.0" encoding="UTF-8"?>
<svg width="1458px" height="1458px" viewBox="0 0 1458 1458" version="1.1" xmlns="http://www.w3.org/2000/svg" xmlns:xlink="http://www.w3.org/1999/xlink">
    <title>Group 2</title>
    <g id="Page-1" stroke="none" stroke-width="1" fill="none" fill-rule="evenodd">
        <g id="Group-2" transform="translate(25.000000, 25.000000)" fill-rule="nonzero" stroke="#131313" stroke-width="50">
            <circle id="Oval" cx="704" cy="704" r="704"></circle>
            <g id="Group" transform="translate(451.000000, 441.429092)">
                <path d="M0.00019107762,15.3051971 C-0.0490200639,-0.818148864 9.41369133,-4.8568196 21.0311647,6.32952916 L21.0311647,6.32952916 L187.168051,166.306966 C186.017953,103.365852 222.537965,43.1421314 283.991535,17.1415731 C364.741906,-17.0204724 457.968614,20.8402852 492.214889,101.706761 C499.461084,118.814848 503.471335,136.476554 504.551566,154.016711 C504.840388,155.60635 505,157.295697 505,159.096149 L505,159.096149 L504.987649,509.342818 C504.985749,525.467113 495.510687,529.474447 483.929316,518.251063 L483.929316,518.251063 L318.923445,358.351696 C319.86173,420.92067 283.594703,480.750567 222.554615,506.802784 C141.912552,541.223122 48.5670848,503.655793 14.0642909,422.898521 C6.76584226,405.813225 2.69668635,388.163864 1.56325114,370.628455 C1.268729,369.038816 1.10436665,367.349468 1.09771615,365.549967 L1.09771615,365.549967 Z" id="Combined-Shape"></path>
            </g>
        </g>
    </g>
</svg>