<?xml version="1.0" encoding="UTF-8"?>
<svg width="158px" height="158px" viewBox="0 0 158 158" version="1.1" xmlns="http://www.w3.org/2000/svg" xmlns:xlink="http://www.w3.org/1999/xlink">
    <!-- Generator: Sketch 51.1 (57501) - http://www.bohemiancoding.com/sketch -->
    <title>Group</title>
    <desc>Created with Sketch.</desc>
    <defs></defs>
    <g id="Page-1" stroke="none" stroke-width="1" fill="none" fill-rule="evenodd">
        <g id="Brand---Logo-Light" transform="translate(-1225.000000, -176.000000)" fill="#000000">
            <g id="Group" transform="translate(1224.437500, 176.000000)">
                <g transform="translate(36.143791, 41.008877)" id="Shape">
                    <path d="M21.8902288,0.212045827 L21.8902288,15.5077905 C21.595915,15.7922422 21.3067647,16.0792799 21.0253595,16.3740753 C15.7535294,21.8898527 12.5780392,29.3916203 12.4205556,37.0019967 C12.3017974,42.7427496 13.7888562,48.5248773 16.7371569,53.4303764 C20.2921569,59.352144 25.8686275,64.0430115 32.3202941,66.4892962 C42.1384967,70.2156137 53.823268,68.3770213 62.0640523,61.8527332 C66.3238562,58.4806874 69.7187908,53.9863502 71.6937908,48.912766 C74.363268,42.0548936 74.4949346,34.2221277 72.0010131,27.2944354 C70.4106863,22.87509 67.7386275,18.9005237 64.3385294,15.6655319 L64.3385294,0.281865794 C68.1749346,2.45404255 71.6808824,5.20288052 74.6704902,8.45338789 C80.0223529,14.2743044 83.791634,21.5562684 85.3251634,29.3502455 C87.2614379,39.2077905 85.6556209,49.7247463 80.7762092,58.5220622 C75.2152288,68.5476923 65.5932353,76.2201309 54.5048366,79.2637643 C44.1909477,82.092766 32.8676144,80.9549591 23.3204902,75.9667103 C13.8533987,71.0224223 6.29160131,62.4836989 2.66431373,52.4115221 C-0.808071895,42.7686088 -0.766764706,31.8947954 2.90957516,22.3087725 C6.45683007,13.0615057 13.3034967,5.13047463 21.8902288,0.212045827 Z"></path>
                </g>
                <path d="M72.8684641,133.136334 L85.6478758,133.136334 L85.6478758,157.456956 L72.8684641,157.456956 L72.8684641,133.136334 Z M85.6478758,120.566154 L72.8684641,120.566154 L72.8684641,109.420818 L85.6478758,109.420818 L85.6478758,120.566154 Z M85.6478758,97.0756137 L72.8684641,97.0756137 L72.8684641,1.3188216 L85.6478758,1.3188216 L85.6478758,97.0756137 Z" id="Shape"></path>
                <g transform="translate(36.143791, 79.624170)" id="Shape">
                    <polygon points="0.103267974 0.196694329 12.0926797 0.196694329 12.0926797 28.7115869 11.746732 28.7115869 11.695098 71.6343392 0.343366013 65.2417735"></polygon>
                </g>
                <g transform="translate(0.155780, 0.135854)" id="Shape">
                    <g transform="translate(0.361668, 0.365333)">
                        <path d="M72.3517813,144.387856 C83.0666399,145.40511 94.0335699,143.842637 103.973948,139.700438 C124.866644,130.991573 140.674074,111.012412 143.943695,88.1534718 C146.391345,71.0577505 141.857714,53.0838245 131.515482,39.2301428 C123.598981,28.6294784 112.453044,20.5719488 99.9079281,16.2504491 L99.9079281,3.09201294 C111.97082,6.51701188 123.303071,12.7961766 132.512808,21.4867455 C150.607147,38.5641708 159.908214,64.3431426 156.474198,89.4524831 C153.460302,111.510062 140.579091,131.961257 121.998876,144.296376 C107.488334,153.931016 89.7264378,158.431815 72.3517813,157.074257 L72.3517813,144.387856 Z M47.0752363,150.615792 C30.1937628,143.044935 15.924333,129.483988 7.85074365,112.582204 C-2.49148775,90.9271354 -2.26133565,64.3870528 8.91017393,42.7136888 C21.7365867,17.8312178 48.3648186,0.651335269 77.1849753,0.102457233 C77.776795,0.0914796727 78.3649614,0.0878204858 78.9567811,0.0878204858 C81.0171903,0.0987980465 83.0775996,0.193936906 85.1307024,0.369577878 L85.1307024,13.0084095 C84.3343031,12.9315665 83.5305973,12.8657012 82.7305448,12.8181317 C81.3204066,12.7339704 79.9029619,12.6937194 78.4891705,12.6973786 C58.2577055,12.7961766 38.2162072,22.7272099 25.8939372,39.2301428 C13.5935864,55.6964839 9.57871096,78.0138649 15.6393828,97.9491151 C20.5967858,114.258111 32.1957207,128.375254 47.0752363,136.623062 L47.0752363,150.615792 Z"></path>
                    </g>
                    <g transform="translate(41.642916, 100.261136)">
                        <path d="M74.6277298,0.135389916 C69.0017897,9.73709636 59.6166988,17.0554702 48.8506953,20.0120932 C38.5376895,22.8406447 27.2127452,21.7026375 17.6669131,16.7151658 C10.4774001,12.9571808 4.38750262,7.13175528 0.284950212,0.135389916 L15.7416726,0.135389916 C18.8395928,3.23106204 22.5768245,5.68637645 26.6684173,7.2378717 C36.4845867,10.962924 48.1711986,9.12601215 56.4091823,2.60168189 C57.3772824,1.83325264 58.301544,1.00993559 59.1710074,0.135389916 L74.6277298,0.135389916 Z"></path>
                    </g>
                </g>
            </g>
        </g>
    </g>
</svg>