<?xml version="1.0" encoding="UTF-8"?>
<svg width="165px" height="165px" viewBox="0 0 165 165" version="1.1" xmlns="http://www.w3.org/2000/svg" xmlns:xlink="http://www.w3.org/1999/xlink">
    <!-- Generator: Sketch 63 (92445) - https://sketch.com -->
    <title>Group</title>
    <desc>Created with Sketch.</desc>
    <g id="Page-1" stroke="none" stroke-width="1" fill="none" fill-rule="evenodd">
        <g id="Brand---&quot;The-Block&quot;-Dark" transform="translate(-1203.000000, -83.000000)" fill="#0432FF">
            <g id="Group" transform="translate(1203.000000, 83.000000)">
                <path d="M151.337451,1.10061397e-13 C155.795045,1.0924255e-13 157.411476,0.464128056 159.041106,1.33566352 C160.670735,2.20719898 161.949678,3.48614185 162.821214,5.11577148 C163.692749,6.74540111 164.156877,8.3618323 164.156877,12.819426 L164.156877,151.337451 C164.156877,155.795045 163.692749,157.411476 162.821214,159.041106 C161.949678,160.670735 160.670735,161.949678 159.041106,162.821214 C157.411476,163.692749 155.795045,164.156877 151.337451,164.156877 L12.819426,164.156877 C8.3618323,164.156877 6.74540111,163.692749 5.11577148,162.821214 C3.48614185,161.949678 2.20719898,160.670735 1.33566352,159.041106 C0.464128056,157.411476 2.73375895e-12,155.795045 2.72276937e-12,151.337451 L2.73097239e-12,12.819426 C2.72899276e-12,8.3618323 0.464128056,6.74540111 1.33566352,5.11577148 C2.20719898,3.48614185 3.48614185,2.20719898 5.11577148,1.33566352 C6.74540111,0.464128056 8.3618323,1.09844403e-13 12.819426,1.09025556e-13 L151.337451,1.10061397e-13 Z M123.687647,123.117658 C119.595295,123.117658 116.277788,126.435165 116.277788,130.527517 C116.277788,134.619869 119.595295,137.937376 123.687647,137.937376 C127.779999,137.937376 131.097506,134.619869 131.097506,130.527517 C131.097506,126.435165 127.779999,123.117658 123.687647,123.117658 Z M126.537593,28.4994579 L35.3393277,28.4994579 L35.3393277,55.0221966 L45.0774476,55.0221966 L45.0774476,37.6452298 L75.5283937,37.6452298 L75.5283937,126.816507 L61.3076473,126.816507 L61.3076473,135.657419 L100.569273,135.657419 L100.569273,126.816507 L86.3485269,126.816507 L86.3485269,37.6452298 L116.6449,37.6452298 L116.6449,55.0221966 L126.537593,55.0221966 L126.537593,28.4994579 Z" id="Combined-Shape"></path>
            </g>
        </g>
    </g>
</svg>